<?xml version="1.0" ?><!DOCTYPE svg  PUBLIC '-//W3C//DTD SVG 1.1//EN'  'http://www.w3.org/Graphics/SVG/1.1/DTD/svg11.dtd'><svg height="30px" style="enable-background:new 0 0 512 512;" version="1.1" viewBox="0 0 512 512" width="30px" xml:space="preserve" xmlns="http://www.w3.org/2000/svg" xmlns:xlink="http://www.w3.org/1999/xlink"><g id="_x37_1-github"><g><circle cx="256" cy="256" r="240" style="fill:#6879D9;"/><g><g><path d="M258.099,110.074c-81.752,0-148.047,66.507-148.047,148.55      c0,65.621,42.422,121.288,101.277,140.947c7.403,1.373,10.105-3.212,10.105-7.153c0-3.533-0.127-12.874-0.205-25.267      c-41.18,8.972-49.878-19.919-49.878-19.919c-6.719-17.163-16.438-21.73-16.438-21.73c-13.456-9.21,1.001-9.022,1.001-9.022      c14.861,1.051,22.671,15.311,22.671,15.311c13.216,22.693,34.669,16.145,43.107,12.336c1.332-9.6,5.163-16.144,9.404-19.861      c-32.872-3.757-67.448-16.501-67.448-73.408c0-16.22,5.777-29.479,15.251-39.874c-1.535-3.756-6.605-18.866,1.445-39.304      c0,0,12.439-3.992,40.716,15.223c11.811-3.293,24.47-4.937,37.074-4.993c12.567,0.076,25.242,1.7,37.071,5.013      c28.264-19.216,40.683-15.223,40.683-15.223c8.069,20.456,2.998,35.55,1.48,39.301c9.494,10.396,15.215,23.656,15.215,39.878      c0,57.056-34.611,69.614-67.592,73.291c5.312,4.59,10.047,13.648,10.047,27.504c0,19.865-0.183,35.881-0.183,40.746      c0,3.974,2.664,8.599,10.178,7.137c58.766-19.681,101.15-75.326,101.15-140.931C406.186,176.581,339.89,110.074,258.099,110.074      L258.099,110.074z M258.099,110.074" style="fill:#FFFFFF;"/></g></g></g><linearGradient gradientUnits="userSpaceOnUse" id="SVGID_1_" x1="256" x2="256" y1="39.5459" y2="472.4546"><stop offset="0" style="stop-color:#FFFFFF"/><stop offset="0.1413" style="stop-color:#FFFFFF;stop-opacity:0.8587"/><stop offset="1" style="stop-color:#FFFFFF;stop-opacity:0"/></linearGradient><circle cx="256" cy="256.001" r="216.455" style="fill:url(#SVGID_1_);"/></g><g id="Layer_1"/></svg>
