<?xml version="1.0" ?><svg width="200px" height="70px" viewBox="0 0 2050 2050" xmlns="http://www.w3.org/2000/svg"><defs><style>.cls-1{fill:#ffbfbf;}.cls-2{fill:#8c0a64;}.cls-3{fill:#ff5b24;}</style></defs><title/><g data-name="Layer 3" id="Layer_3"><path class="cls-1" d="M866.3,1343.4c46.7-.9,93.3-2.9,140-3h141.4c34.4,0,68.7,0,103,.5a474.9,474.9,0,0,0,163.2-180.7,469.8,469.8,0,0,1-319,124.3c-260.3,0-471.3-211-471.3-471.3a470,470,0,0,1,51.7-214.8A470.2,470.2,0,0,0,523,945.4c0,165.5,85.4,311.2,214.6,395.2C780.4,1344.1,823.4,1344.2,866.3,1343.4Z"/><path class="cls-2" d="M1456.2,750.2a501.4,501.4,0,1,0-816.4,549.6,514.9,514.9,0,0,0,49.2,43.3H802.8a441,441,0,1,1,381.8.5c32.9.9,65.8,2.5,98.8,3.2l10.9.2a506.4,506.4,0,0,0,54.5-47.2,501.9,501.9,0,0,0,107.4-549.6Z"/><path class="cls-1" d="M789.5,1426.9a72.9,72.9,0,0,1-72.9-72.9h0a70.4,70.4,0,0,1,.7-10.3h-.7a72.9,72.9,0,0,0-72.9,72.9h0a72.9,72.9,0,0,0,72.9,73H1272a73,73,0,0,0,72.2-62.7Z"/><path class="cls-1" d="M630,1544.8h0a109.8,109.8,0,0,1,14.8-55.2H614.4a110.5,110.5,0,0,0-110.6,110.5h980.9a110.1,110.1,0,0,0-14.8-55.3Z"/><path class="cls-3" d="M1272,1519.6H716.6a103,103,0,0,1,0-205.9H1272a103,103,0,0,1,0,205.9ZM716.6,1373.7a43,43,0,0,0,0,85.9H1272a43,43,0,0,0,0-85.9Z"/><path class="cls-3" d="M1484.7,1630.1H503.8a30.1,30.1,0,0,1-30-30c0-77.5,63.1-140.5,140.6-140.5h759.8c77.5,0,140.5,63,140.5,140.5A30,30,0,0,1,1484.7,1630.1Zm-945.1-60h909.3a80.6,80.6,0,0,0-74.7-50.5H614.4A80.8,80.8,0,0,0,539.6,1570.1Z"/><path class="cls-3" d="M1259.4,646l19.2,60.1a11.2,11.2,0,0,0,7.3,7.2l60,19.3a11.1,11.1,0,0,1,0,21.2l-60,19.2a11.2,11.2,0,0,0-7.3,7.2l-19.2,60.1c-3.3,10.3-17.9,10.3-21.2,0l-19.3-60.1a11,11,0,0,0-7.2-7.2l-60-19.2a11.1,11.1,0,0,1,0-21.2l60-19.3a11,11,0,0,0,7.2-7.2l19.3-60.1C1241.5,635.7,1256.1,635.7,1259.4,646Z"/><path class="cls-3" d="M1078.2,642.6l10.6,33.3a6,6,0,0,0,4,3.9l33.3,10.7a6.2,6.2,0,0,1,0,11.8l-33.3,10.6a6.1,6.1,0,0,0-4,4l-10.6,33.3a6.2,6.2,0,0,1-11.8,0l-10.6-33.3a6.1,6.1,0,0,0-4-4l-33.3-10.6a6.2,6.2,0,0,1,0-11.8l33.3-10.7a6,6,0,0,0,4-3.9l10.6-33.3A6.2,6.2,0,0,1,1078.2,642.6Z"/><path class="cls-3" d="M1188.4,871.5l7.1,21.9a3.9,3.9,0,0,0,2.6,2.7l22,7a4.1,4.1,0,0,1,0,7.8l-22,7a4,4,0,0,0-2.6,2.6l-7.1,22a4,4,0,0,1-7.7,0l-7.1-22a4.2,4.2,0,0,0-2.6-2.6l-22-7a4.1,4.1,0,0,1,0-7.8l22-7a4.1,4.1,0,0,0,2.6-2.7l7.1-21.9A4,4,0,0,1,1188.4,871.5Z"/><ellipse class="cls-1" cx="867" cy="1191.3" rx="76" ry="147.3" transform="matrix(0.5, -0.87, 0.87, 0.5, -598.25, 1346.48)"/><ellipse class="cls-1" cx="1037.9" cy="1245.2" rx="23.7" ry="11.4"/><ellipse class="cls-1" cx="981.9" cy="1150.9" rx="19.2" ry="39.9" transform="translate(-530.3 1107.6) rotate(-47.9)"/></g></svg>
